# xmcd
#
# Track frame offsets:
#	150
#	16570
#	35247
#	63862
#	74505
#	93275
#	120450
#	148147
#	174312
#	185530
#
# Disc length: 2789 seconds
#
# Revision: 0
# Processed by: cddbd v1.5.1PL2 Copyright (c) Steve Scherf et al.
# Submitted via: EasyCDDAExtractor 9.1.0.1
#
DISCID=840ae30a
DTITLE=Jo Jonathan - JJ01
DYEAR=1991
DGENRE=Blues
TTITLE0=Crazy Dream Boogie (A.Walter)
TTITLE1=Sitting on Top of the World (Trad.)
TTITLE2=High´n Low (A. Walter)
TTITLE3=You never Know What´s on a Womans Mind (A. Walter)
TTITLE4=You Give me Sorrow (A. Walter)
TTITLE5=Road of Love (A. Walter)
TTITLE6=My Friend the Blues is Kocking at my Door (A. Walter)
TTITLE7=Losing streak Blues (A. Walter)
TTITLE8=Shake your Body (A. Walter)
TTITLE9=Worried Men and Worried Women Blues (A. Walter)
EXTD=
EXTT0=
EXTT1=
EXTT2=
EXTT3=
EXTT4=
EXTT5=
EXTT6=
EXTT7=
EXTT8=
EXTT9=
PLAYORDER=
